<svg width="18" height="18" viewBox="0 0 18 18" fill="none" xmlns="http://www.w3.org/2000/svg">
<path d="M9 1.5C7.13604 1.5 5.625 3.01104 5.625 4.875C5.625 6.73896 7.13604 8.25 9 8.25C10.864 8.25 12.375 6.73896 12.375 4.875C12.375 3.01104 10.864 1.5 9 1.5Z" fill="white"/>
<path d="M8.99916 9C6.32534 9 4.25155 10.5799 3.25292 12.8528C2.92446 13.6003 3.09577 14.3425 3.54275 14.8819C3.9828 15.4129 4.68777 15.75 5.45523 15.75H12.5431C13.3106 15.75 14.0155 15.4129 14.4556 14.8819C14.9026 14.3425 15.0739 13.6003 14.7454 12.8528C13.7468 10.5799 11.673 9 8.99916 9Z" fill="white"/>
</svg>
