<svg width="18" height="18" viewBox="0 0 18 18" fill="none" xmlns="http://www.w3.org/2000/svg">
<path fill-rule="evenodd" clip-rule="evenodd" d="M3.75 3.75C3.75 2.09315 5.09315 0.75 6.75 0.75H11.25C12.9069 0.75 14.25 2.09315 14.25 3.75V14.25C14.25 15.9069 12.9069 17.25 11.25 17.25H6.75C5.09315 17.25 3.75 15.9069 3.75 14.25V3.75ZM7.5 13.5C7.08579 13.5 6.75 13.8358 6.75 14.25C6.75 14.6642 7.08579 15 7.5 15H10.5C10.9142 15 11.25 14.6642 11.25 14.25C11.25 13.8358 10.9142 13.5 10.5 13.5H7.5Z" fill="white"/>
</svg>
