<svg width="112" height="120" viewBox="0 0 112 120" fill="none" xmlns="http://www.w3.org/2000/svg">
<rect x="8.92969" width="101.869" height="101.869" rx="50.9347" fill="#F5F590"/>
<path d="M61.2633 19.6099C65.8092 20.0439 68.5043 20.5261 72.4171 21.5869C75.4207 22.3906 76.2487 22.6638 78.3268 23.4835C79.7068 24.03 84.0255 26.1195 83.9443 26.1838C83.9119 26.216 83.0189 25.8784 81.9636 25.4284C76.8494 23.2907 72.6931 22.1977 66.4586 21.394C64.5266 21.1369 57.6103 21.1529 55.7432 21.394C53.0968 21.7476 50.8725 22.1334 50.8725 22.2138C50.8725 22.262 51.5544 22.6638 52.3662 23.1139C54.558 24.2872 56.214 25.573 58.5032 27.8394L60.5327 29.8646L61.3282 29.7038C61.7666 29.6074 62.1562 29.4467 62.1887 29.3502C62.2861 29.0931 59.6235 26.7142 57.3342 24.9944C56.1815 24.1586 55.2561 23.4353 55.2561 23.4032C55.2561 23.0978 60.2242 26.441 61.9939 27.9519C62.7732 28.5948 63.4875 29.1413 63.6012 29.1574C63.6986 29.1574 65.452 29.1895 67.5139 29.2056C71.2644 29.2538 71.3942 29.2699 74.9985 30.0414C76.2974 30.3146 76.3298 30.3146 80.3076 29.8485C84.0742 29.4145 84.3015 29.3663 84.0255 29.1252C83.6196 28.7234 80.8758 27.1 79.4471 26.4088C78.3268 25.8624 74.4303 24.1747 73.6997 23.9336C73.5373 23.8693 73.4237 23.7889 73.4724 23.7568C73.6185 23.6121 78.0995 25.2355 80.34 26.2481C83.0351 27.4697 84.058 27.9679 85.2269 28.6591C86.3797 29.3663 86.6719 29.4627 87.4187 29.4627C88.5715 29.4627 92.1758 29.8806 93.848 30.2021C95.1306 30.4593 95.2118 30.4593 96.4619 30.1217C99.4493 29.3181 101.917 29.5431 104.531 30.8611C106.106 31.6487 110.035 34.124 109.905 34.2365C109.856 34.2847 109.223 33.9632 108.476 33.5132C104.856 31.3433 102.81 30.6682 100.066 30.7004C99.1246 30.7164 98.1342 30.7968 97.8744 30.8772L97.3874 31.0218L98.118 31.2147C99.0921 31.4719 103.752 33.2399 105.18 33.8829C106.268 34.3811 107.129 34.7669 109.191 35.683C110.36 36.1974 110.311 36.342 109.142 35.9081C106.544 34.9758 98.7349 32.2755 98.0368 32.0827C96.6568 31.6969 94.7085 31.2629 92.9226 30.9575C90.5197 30.5557 84.4314 30.5718 81.5739 31.0058L79.5607 31.3112L81.9798 32.2434C84.8373 33.3685 90.3249 36.0527 92.8414 37.5797C93.8155 38.1744 94.6598 38.7048 94.7085 38.7691C94.7572 38.8173 95.5528 39.3638 96.4944 39.9906C98.4752 41.2926 101.609 43.7678 103.232 45.3269C104.385 46.436 106.398 48.9595 107.129 50.2292C108.184 52.0455 107.177 52.8813 103.151 53.5082C100.894 53.8618 96.7704 53.9743 94.3838 53.7493C91.1204 53.4439 84.3827 52.6081 82.4669 52.2705C81.4928 52.1098 80.6647 51.9973 80.616 52.0294C80.5836 52.0776 80.8109 52.817 81.1356 53.685C82.5968 57.5586 83.993 64.6951 83.993 68.1829V69.0509L85.7302 68.9384C86.7856 68.858 87.6298 68.7294 87.8409 68.5848C88.0357 68.4722 88.6202 67.749 89.1397 66.9935C89.6592 66.2381 90.5197 65.0165 91.0555 64.2932C91.5913 63.5699 93.0849 61.5126 94.3513 59.7285L96.6568 56.4978L97.842 56.4013C99.3356 56.2888 110.489 55.9513 110.554 56.0316C110.587 56.0638 107.778 56.3852 104.32 56.771C98.6537 57.3818 98.0043 57.4782 97.7446 57.7836C97.1114 58.539 97.2413 58.5712 100.423 58.4748C102.063 58.4265 103.833 58.3462 104.352 58.314C104.888 58.2658 105.262 58.2819 105.197 58.3462C105.083 58.4587 103.33 58.6998 99.498 59.1177C98.2479 59.2463 97.0951 59.407 96.9328 59.4552C96.6892 59.5356 96.0723 60.4517 96.2022 60.5643C96.2346 60.5803 98.2966 60.516 100.797 60.3875C103.297 60.2749 105.359 60.2107 105.408 60.2589C105.44 60.291 105.408 60.3232 105.31 60.3232C105.213 60.3232 103.005 60.6125 100.391 60.9661C97.777 61.3197 95.6177 61.609 95.5852 61.609C95.504 61.609 94.8384 62.9109 94.9033 62.9752C94.9358 63.0074 97.501 62.8949 100.634 62.7181C103.752 62.5413 106.463 62.4287 106.642 62.4448C106.966 62.493 101.706 63.1842 97.7121 63.6342C93.9454 64.0521 94.2864 63.9557 93.8318 64.7593L93.4259 65.4666H93.8643C94.2864 65.4666 99.4331 65.1451 104.336 64.8236C105.651 64.7272 106.999 64.679 107.34 64.679C108.038 64.7111 107.583 64.7754 99.1733 65.9327C95.8612 66.3988 93.0362 66.8006 92.8739 66.8489C92.6304 66.9292 91.9485 67.99 91.9485 68.2954C91.9485 68.3597 92.3868 68.3597 92.9226 68.3115C100.034 67.5721 110.197 66.5917 110.311 66.6238C110.408 66.656 107.859 67.09 104.661 67.6043C97.9881 68.6812 91.7536 69.7099 86.266 70.61C84.1716 70.9636 82.2558 71.2529 81.9961 71.2529C81.7525 71.2529 80.7135 70.8189 79.6906 70.2724L77.8235 69.292V71.3815C77.8235 72.8602 77.8885 73.5031 78.0183 73.6156C78.132 73.696 79.3334 74.2907 80.6972 74.9497L83.165 76.1231L92.7115 74.58C104.109 72.7156 105.31 72.5387 105.392 72.6191C105.44 72.6513 105.294 72.7156 105.083 72.7638C102.42 73.3585 100.618 73.7764 98.0368 74.4514C88.2305 76.9749 88.2143 76.9749 84.1879 77.9393C82.4994 78.3251 82.2558 78.3572 81.2655 78.1804C77.4339 77.5053 77.4826 77.5053 75.1771 77.9232C73.9919 78.1322 71.719 78.5662 70.1279 78.8716C68.5205 79.193 67.0756 79.4502 66.897 79.4502C66.28 79.4502 63.6499 77.6018 62.2861 76.2034C60.0943 73.9853 57.594 69.8224 56.5874 66.7524C56.1978 65.5469 56.0841 65.3541 55.4672 64.9522C54.5255 64.3254 50.9861 62.5413 48.9242 61.6733C47.9826 61.2715 46.9922 60.8536 46.7324 60.725C44.8329 59.8892 37.332 57.7515 36.293 57.7515C35.9845 57.7515 34.0362 58.0408 31.9743 58.3783C26.1133 59.3748 26.7789 59.3909 24.4085 58.2176C20.3009 56.2245 16.3395 54.9226 12.6378 54.36C11.9234 54.2636 11.2415 54.1189 11.1116 54.0546C10.722 53.8457 15.4952 53.5082 18.9209 53.5082C20.788 53.4921 22.2979 53.4599 22.2979 53.4278C22.2979 53.3956 22.1518 52.7849 21.9732 52.0455C20.5607 46.2592 20.7068 41.1318 22.3141 40.5693C23.613 40.1192 25.2853 41.5497 26.649 44.2661C27.6069 46.1627 28.8571 50.2453 29.4416 53.3313C29.6364 54.3922 29.8312 55.3566 29.8637 55.4851C29.9286 55.662 30.1884 55.6941 31.1138 55.5977C31.747 55.5494 33.2082 55.4209 34.3447 55.3244L36.4066 55.1637L38.3224 55.7905C43.5016 57.5104 48.3722 59.6963 53.0968 62.4287C54.4443 63.2163 55.597 63.8593 55.662 63.8593C55.7269 63.8593 55.7269 63.7467 55.6782 63.6182C55.6295 63.4735 55.4185 62.477 55.2236 61.4001C54.8989 59.6802 54.8502 58.9248 54.8664 55.1798C54.8664 51.2258 54.8989 50.7596 55.3048 48.7184C56.4251 43.0767 57.8538 40.4889 60.5976 39.1388C61.6529 38.6244 61.9289 38.5601 62.9518 38.5762C63.5849 38.5762 64.4617 38.7048 64.9163 38.8655C66.8158 39.5245 69.5921 41.8069 70.9884 43.8643C71.2968 44.2982 71.8488 45.0858 72.2223 45.6162C72.9691 46.6449 74.5602 49.6506 74.9823 50.84C76.4435 54.8261 77.4176 59.9696 77.7423 65.2415C77.8073 66.222 77.9047 67.106 77.9534 67.1864C78.0671 67.3471 81.4278 69.1634 81.6226 69.1634C81.9149 69.1634 81.5577 63.9235 81.0706 60.8054C80.2751 55.9352 79.4146 52.7849 77.9209 49.3131C76.3461 45.6805 74.4465 42.6909 72.2385 40.4085C70.7773 38.8977 71.2319 39.1388 73.1477 40.8747C73.9919 41.6462 75.1934 42.9963 75.9889 44.0572C77.5962 46.211 77.9859 46.8057 79.1711 49.072C79.7231 50.1167 80.2101 50.8239 80.4537 50.9365C80.9895 51.2097 84.5613 51.6115 88.1331 51.8205C90.2924 51.933 92.4031 51.9491 95.1956 51.8365C100.732 51.6115 101.527 51.3544 101.527 49.7631C101.527 48.9112 101.3 48.4451 100.066 46.7414C98.5888 44.7161 95.504 42.0319 91.7374 39.5245C87.711 36.8403 86.5258 36.1492 82.613 34.1882C79.7231 32.7256 77.2066 31.7773 74.6901 31.2147C69.2836 29.9771 64.9163 29.9449 59.6072 31.0861C57.0907 31.6326 55.8568 32.0505 52.2363 33.5614C50.8563 34.14 49.2002 34.8151 48.5508 35.0723C47.9014 35.3134 47.2357 35.5705 47.0571 35.6509C46.8785 35.7152 46.1804 35.9724 45.5148 36.2135C44.8491 36.4546 42.5437 37.3064 40.4006 38.094C35.5624 39.8781 33.9713 40.4407 33.9063 40.3603C33.8739 40.3443 33.4193 39.6531 32.8835 38.8495C32.2016 37.8208 31.5847 37.1136 30.7566 36.4546C30.1235 35.9241 29.6039 35.4902 29.6039 35.458C29.6039 35.2812 31.6821 36.2456 32.575 36.8403C34.296 37.9976 34.231 37.9815 35.6111 37.7404C38.6146 37.21 42.6735 36.0045 46.8136 34.3972C48.291 33.8346 49.6386 33.3203 49.8172 33.2399C50.0282 33.1596 50.0607 33.0953 49.9471 33.0471C49.7522 32.9828 42.2676 33.3364 38.8582 33.5775L37.4619 33.6739L36.2118 32.2273C35.5299 31.4237 34.9616 30.7164 34.9616 30.6361C34.9616 30.186 37.7866 27.2607 39.1017 26.3446C41.5208 24.6729 43.2255 23.9979 45.0277 23.9979C48.2423 23.9979 51.9116 26.441 54.3631 30.2182C54.8015 30.9093 55.11 31.2308 55.3373 31.2308C55.8406 31.2308 58.211 30.3628 58.1785 30.186C58.1623 30.0896 57.6427 29.3984 57.0258 28.6269C55.0288 26.1677 52.0739 24.0139 49.3951 23.1139C48.1612 22.696 47.8202 22.6477 45.9206 22.6638C43.7776 22.6638 43.1768 22.7763 41.2123 23.58L40.5629 23.8532L40.9688 23.5318C42.154 22.5834 46.3915 21.0565 49.6711 20.3975C53.1617 19.6742 58.4058 19.3206 61.2633 19.6099ZM42.9982 25.6213C41.1636 26.1195 39.2478 27.1804 37.8353 28.4823C36.6989 29.5431 36.6501 29.6556 37.2184 30.4271C38.2737 31.8737 38.8257 32.3559 39.4102 32.3559C40.433 32.3559 48.843 31.5362 48.9567 31.4237C49.2165 31.1665 48.0962 29.3181 47.1708 28.4662C45.6446 27.0839 43.7776 26.6982 41.8293 27.3732C40.5954 27.8072 40.5304 27.6465 41.7156 27.1C42.5274 26.7303 42.8684 26.666 44.086 26.6821C46.4727 26.6982 47.9014 27.6143 49.4275 30.1057C50.0932 31.1986 50.2231 31.3112 50.7264 31.3594C51.0348 31.3915 51.457 31.3433 51.6518 31.279C52.009 31.1343 52.009 31.1343 51.4083 30.1378C50.1094 28.0162 47.9339 26.1195 46.1804 25.6052C45.5472 25.4123 43.7451 25.4284 42.9982 25.6213ZM22.2979 41.8069C21.4212 42.6749 21.2426 45.2144 21.8271 48.5898C22.4603 52.3509 23.6617 55.2762 25.058 56.5299C26.0483 57.4139 26.6328 57.2693 27.1036 55.9834C27.4608 55.003 27.5907 52.2544 27.3472 50.7114C27.0387 48.7826 26.4055 46.5003 25.8048 45.0858C24.9605 43.0767 23.6455 41.4051 22.8986 41.3569C22.8174 41.3569 22.5577 41.5658 22.2979 41.8069ZM60.5164 42.0802C58.5682 43.0445 57.042 45.3751 56.2465 48.5898C55.2236 52.7366 55.2074 56.771 56.1653 61.8501C57.3505 68.1186 60.3865 73.4549 63.7473 75.1104C65.0299 75.7373 66.6048 75.7855 67.8387 75.2069C68.894 74.7247 70.4039 73.1174 71.0046 71.8315C72.3197 68.9866 72.8392 66.2863 72.8554 62.2519C72.8717 58.0086 72.3359 54.8744 70.9234 50.84C69.7869 47.6093 68.6017 45.6966 66.5236 43.6392C64.5753 41.7265 62.3673 41.164 60.5164 42.0802Z" fill="#242731"/>
<path d="M22.6856 42.6747C22.783 43.0283 23.4649 46.5322 23.5948 47.3841C23.6597 47.8181 23.6759 48.236 23.611 48.3164C23.5461 48.3807 23.1564 48.0431 22.7343 47.5609L21.9712 46.6769V45.2625C21.9712 43.832 22.166 42.739 22.4583 42.5622C22.5557 42.4979 22.6531 42.5622 22.6856 42.6747ZM23.0428 47.4323C23.4162 48.011 23.5298 47.6574 23.2701 46.693C22.9616 45.6 22.8642 45.5196 22.8155 46.3072C22.783 46.7733 22.8642 47.1591 23.0428 47.4323Z" fill="#242731"/>
<path d="M24.218 43.2372C24.7213 43.9444 25.4844 45.5356 25.7604 46.4197L26.0039 47.2394L25.4357 47.8502C24.8999 48.4127 24.8674 48.4288 24.6564 48.1556C24.5265 47.9948 24.3479 47.6894 24.2667 47.4644C24.1043 47.0626 23.7147 42.9479 23.8283 42.8354C23.8608 42.8032 24.0394 42.98 24.218 43.2372ZM24.3154 46.4036C24.3804 46.6768 24.5589 47.0787 24.7375 47.3037C25.0622 47.7055 25.0622 47.7055 25.322 47.3841C25.6792 46.934 25.5331 46.0661 24.9648 45.2142L24.494 44.523L24.3641 45.2142C24.2829 45.5839 24.2667 46.1303 24.3154 46.4036Z" fill="#242731"/>
<path d="M24.3593 48.7026C24.4729 48.8954 24.5703 49.3294 24.5703 49.6509C24.5703 50.2134 24.5541 50.2456 24.3105 50.0205C24.1482 49.8437 24.0832 49.5384 24.1157 49.0562C24.1644 48.3972 24.1807 48.3811 24.3593 48.7026Z" fill="#242731"/>
<path d="M23.6303 49.4115C23.7927 49.4918 23.9226 49.6526 23.9226 49.749C23.9226 49.8615 23.8252 49.8455 23.679 49.7169C23.3381 49.4436 23.2082 49.6044 23.3543 50.1508C23.4517 50.5848 23.468 50.5848 23.6953 50.2955C24.0525 49.7972 23.9875 50.3116 23.5492 51.4849L23.1595 52.4814L22.7699 50.8581L22.364 49.2347H22.8673C23.127 49.2347 23.4842 49.315 23.6303 49.4115Z" fill="#242731"/>
<path d="M26.5652 49.8265C26.6302 49.8747 26.6789 50.0676 26.6789 50.2605C26.6789 50.5337 26.6464 50.5498 26.4678 50.3248C26.3704 50.1962 26.1431 50.0355 25.997 49.9872C25.7697 49.9069 25.6885 50.0194 25.6074 50.4534C25.5586 50.7588 25.5424 51.2249 25.6074 51.4981C25.7048 52.0446 26.2892 52.9286 26.5328 52.9286C26.614 52.9286 26.6951 52.3982 26.6951 51.7553C26.7276 50.6784 26.7276 50.7266 26.8575 52.35C26.9387 53.3305 26.9549 54.1502 26.9062 54.1984C26.6464 54.4556 25.3151 51.9482 25.1528 50.8873C25.0066 49.939 25.1365 49.714 25.8509 49.714C26.1918 49.714 26.5165 49.7622 26.5652 49.8265Z" fill="#242731"/>
<path d="M24.7179 51.2898C24.7991 51.4345 24.9776 51.997 25.1238 52.5275C25.2537 53.0579 25.5621 54.0223 25.7894 54.6813C26.0167 55.3403 26.1953 55.935 26.1953 56.0153C26.1953 56.2403 25.4809 56.1439 25.1238 55.8546C24.4906 55.3402 24.2795 54.8098 24.2308 53.5722C24.1496 51.1773 24.2958 50.5022 24.7179 51.2898ZM24.4094 52.206C24.4094 52.9775 24.7828 53.8937 25.0751 53.8937C25.1887 53.8937 25.2212 53.749 25.1562 53.524C25.1075 53.3311 24.9776 52.7846 24.8802 52.3185C24.6367 51.2898 24.4094 51.2255 24.4094 52.206Z" fill="#242731"/>
<path d="M63.3735 43.4949C64.0391 43.7199 64.0391 43.6395 63.6495 46.822C63.4871 48.0757 63.3735 50.1652 63.3735 51.7565C63.3735 53.3798 63.3085 54.5371 63.2274 54.5371C63.0001 54.5371 62.9189 54.1835 62.6429 51.9654C62.3019 49.1365 62.3344 43.2538 62.7078 43.302C62.7565 43.302 63.065 43.3984 63.3735 43.4949Z" fill="#242731"/>
<path d="M61.4092 45.729C61.4254 48.1239 61.7176 50.7921 62.2534 53.4441L62.5781 55.0193L62.2209 55.839C61.9936 56.3695 61.7826 56.6106 61.6527 56.5623C61.0682 56.3373 58.8439 54.73 57.886 53.8299L56.8145 52.8173L57.334 50.1813C57.9348 47.1435 58.4381 45.938 59.5908 44.7164C60.2402 44.0253 61.0357 43.4467 61.328 43.4467C61.3605 43.4467 61.4092 44.4753 61.4092 45.729ZM59.8668 52.2387C59.7207 52.8977 59.6557 53.6209 59.7207 53.846C59.8181 54.2317 61.1819 55.6622 61.4741 55.6622C61.539 55.6622 61.6689 55.4854 61.7501 55.2604C61.8962 54.8907 61.604 53.5084 60.8247 50.8403L60.5649 49.9563L60.3376 50.4867C60.2077 50.7921 59.9967 51.5797 59.8668 52.2387Z" fill="#242731"/>
<path d="M65.8279 45.1678C67.2729 46.7429 68.7179 49.4754 69.6108 52.2721C69.9355 53.2847 70.1953 54.1848 70.1953 54.2812C70.1953 54.458 66.0877 56.9654 65.8442 56.9333C65.7792 56.9333 65.3409 56.3868 64.87 55.7117L63.9933 54.4741L64.2693 51.2595C64.5129 48.0931 64.9188 45.1838 65.1461 44.7659C65.2435 44.6052 65.4221 44.7177 65.8279 45.1678ZM65.8929 48.5431C65.8279 48.8003 65.7305 49.2825 65.6494 49.6361C65.1298 51.8381 64.8376 53.124 64.8376 53.2043C64.8376 53.3651 66.6722 55.1813 66.8346 55.1813C67.0456 55.1813 68.9776 53.9437 69.2212 53.6544C69.4322 53.3972 68.7016 51.5166 67.8736 50.2469C67.2891 49.3307 66.2825 48.1252 66.104 48.1091C66.039 48.1091 65.9416 48.302 65.8929 48.5431Z" fill="#242731"/>
<path d="M68.3134 52.7038C68.3783 52.8485 68.3783 53.0092 68.3459 53.0414C68.216 53.17 67.9237 52.9128 67.9237 52.6717C67.9237 52.3663 68.1835 52.3824 68.3134 52.7038Z" fill="#242731"/>
<path d="M57.6554 54.972C57.9476 55.197 58.9704 55.7917 59.9283 56.29C60.9837 56.8365 61.6818 57.3026 61.7143 57.4634C61.7954 57.8652 61.5357 57.833 59.0679 57.2223L56.9572 56.6918L56.9085 55.6149C56.8761 55.0202 56.9248 54.538 56.9897 54.538C57.0547 54.5541 57.3631 54.747 57.6554 54.972Z" fill="#242731"/>
<path d="M70.5626 56.0169C70.6113 56.2258 70.7087 56.8205 70.7574 57.351L70.8711 58.3314L68.5656 58.5243C67.283 58.6207 66.179 58.669 66.1141 58.6207C66.0329 58.5725 65.968 58.3796 65.968 58.1868C65.968 57.8814 66.3414 57.6403 68.1598 56.7402C69.3612 56.1455 70.384 55.6633 70.4165 55.6633C70.449 55.6633 70.5139 55.824 70.5626 56.0169Z" fill="#242731"/>
<path d="M64.1383 56.0164C64.5117 56.4343 65.0637 57.4308 64.9501 57.5273C64.9176 57.5594 64.7552 57.4469 64.5929 57.2701C64.2032 56.8522 63.9272 56.8683 63.6188 57.3344C62.9369 58.3631 63.5863 60.9509 64.5767 61.1277L65.0312 61.208L64.7065 61.5134C63.9922 62.1403 63.359 61.5616 62.7096 59.7454C62.3686 58.7167 62.3037 57.5755 62.5797 56.7718C62.9693 55.6628 63.5376 55.3735 64.1383 56.0164Z" fill="#242731"/>
<path d="M61.96 59.5513C62.2035 60.6282 62.2035 60.7086 61.9437 61.0461C60.3202 63.1195 59.1837 64.6947 59.0051 65.1126C58.8914 65.4019 58.7291 65.627 58.6641 65.627C58.4044 65.627 57.3328 61.2711 57.1055 59.3102L57.0081 58.394H59.346H61.684L61.96 59.5513ZM60.0442 59.1977C59.963 59.3263 60.2552 61.2711 60.3851 61.4319C60.4013 61.4479 60.7261 61.239 61.0832 60.9497C61.7002 60.4675 61.7489 60.3871 61.6515 59.8567C61.5865 59.5352 61.5054 59.2298 61.4729 59.1495C61.3755 58.9727 60.1578 59.0048 60.0442 59.1977Z" fill="#242731"/>
<path d="M69.7827 59.664L70.9192 59.7604L71.0328 60.8052C71.1627 61.9303 71.0815 64.1323 70.8218 66.1897C70.6432 67.572 70.0587 69.8062 69.8639 69.8062C69.6853 69.8062 68.2565 68.1345 67.6071 67.2023C67.3311 66.7844 66.7791 65.8039 66.4057 65.0324C65.6426 63.4412 65.5614 62.6215 65.9673 60.5962L66.1946 59.5193L67.4285 59.5515C68.0942 59.5676 69.1495 59.6158 69.7827 59.664ZM67.5259 61.2392C67.3636 61.7535 67.0389 62.4447 66.8116 62.7822L66.3895 63.409L66.7791 64.1323C67.185 64.8878 69.0521 66.913 69.3443 66.913C69.7989 66.913 70.7243 63.2322 70.6432 61.7696L70.5945 60.9016L69.3768 60.6284C68.7111 60.4837 68.078 60.3551 67.9805 60.3391C67.8831 60.323 67.6883 60.7409 67.5259 61.2392Z" fill="#242731"/>
<path d="M69.9477 61.7545C70.0776 61.9634 69.899 62.5742 69.7204 62.5742C69.6392 62.5742 69.4931 62.4778 69.3957 62.3653C69.2658 62.1885 69.2983 62.076 69.5256 61.867C69.7366 61.6902 69.8665 61.642 69.9477 61.7545Z" fill="#242731"/>
<path d="M68.2461 62.9582C68.2461 63.2315 68.0188 63.4244 67.8727 63.2797C67.7428 63.1511 67.9214 62.7332 68.1 62.7332C68.1812 62.7332 68.2461 62.8297 68.2461 62.9582Z" fill="#242731"/>
<path d="M69.2188 65.1292C69.2188 65.4828 68.8129 65.756 68.6018 65.5631C68.4719 65.4346 68.7642 64.9524 69.0239 64.8559C69.1376 64.8238 69.2188 64.9524 69.2188 65.1292Z" fill="#242731"/>
<path d="M62.5625 61.5623C62.5625 61.7552 62.2703 62.4463 61.9131 63.0893C61.2474 64.3269 60.3707 66.7218 60.1921 67.863C60.1272 68.2166 60.0298 68.522 59.9486 68.522C59.77 68.522 59.153 67.3165 59.153 66.9629C59.153 66.3039 60.9552 63.1696 62.2216 61.6105C62.5463 61.2248 62.5625 61.2087 62.5625 61.5623Z" fill="#242731"/>
<path d="M63.7861 62.7175C64.4193 63.1675 64.4193 63.1836 64.7765 65.0802C65.085 66.784 66.0104 70.4004 66.6923 72.6185C66.9358 73.3579 66.9358 73.4383 66.6598 73.6311C66.189 74.0008 64.6791 73.7758 63.64 73.1972C62.5847 72.5864 61.367 71.3005 61.1073 70.513C60.88 69.854 61.1235 67.3466 61.5294 65.9C61.8216 64.9034 62.9257 62.2514 63.0555 62.2514C63.1043 62.2674 63.429 62.4764 63.7861 62.7175ZM62.7471 64.9356C62.3087 66.6233 62.3087 66.7358 62.877 67.5073C63.3478 68.1502 64.468 69.1146 64.5979 68.986C64.6304 68.9378 64.5817 68.3752 64.5005 67.7162C64.4193 67.0572 64.2894 65.9321 64.2083 65.2249C64.0784 64.1962 63.981 63.8908 63.6887 63.6497C63.4939 63.489 63.2666 63.4247 63.2017 63.489C63.1367 63.5533 62.9257 64.2123 62.7471 64.9356Z" fill="#242731"/>
<path d="M63.8594 66.655C63.8594 66.7836 63.7782 66.9443 63.697 66.9925C63.5996 67.0407 63.5347 66.9443 63.5347 66.7675C63.5347 66.5746 63.5996 66.43 63.697 66.43C63.7782 66.43 63.8594 66.5264 63.8594 66.655Z" fill="#242731"/>
<path d="M65.1599 62.9428C65.1599 63.0553 65.4521 63.9394 65.793 64.8877C66.4425 66.6557 67.4978 68.6006 68.6018 70.0793C68.9427 70.5454 69.2188 71.0115 69.2188 71.1401C69.2188 71.3812 68.3907 72.6992 68.2284 72.6992C68.1147 72.6992 67.1731 70.7222 66.5399 69.1631C66.1178 68.0862 64.8351 63.4893 64.8351 63.0071C64.8351 62.8625 64.9001 62.7339 64.9975 62.7339C65.0787 62.7339 65.1599 62.8303 65.1599 62.9428Z" fill="#242731"/>
<path d="M34.9437 32.887C35.5606 33.6103 36.0315 34.2371 36.0152 34.2532C35.9827 34.2854 35.447 34.2371 34.8138 34.1407C34.1968 34.0443 33.2876 33.9639 32.8006 33.9639C31.5667 33.9639 27.9948 34.639 25.4946 35.3623C23.8873 35.8123 22.6371 37.1624 21.1597 40.0235C20.2505 41.8076 20.1368 41.7915 20.8025 39.9592C21.6792 37.4839 23.2541 35.2658 24.6341 34.5747C25.316 34.2371 28.3358 33.4013 30.7062 32.9031C31.5667 32.7263 32.3947 32.4369 32.9467 32.0994L33.8234 31.569L34.9437 32.887Z" fill="#242731"/>
<path d="M78.7989 34.0275C81.7213 35.0562 86.5108 37.7243 89.4981 39.9906C91.2515 41.3247 94.2227 43.8 94.2227 43.9286C94.2227 43.9929 94.0603 44.025 93.8492 43.9768C93.4109 43.8803 85.7802 41.8391 85.5042 41.7587C85.358 41.7105 85.423 41.5176 85.699 41.0997C86.4621 39.9906 86.0724 37.9654 85.082 37.8529C84.6924 37.8047 84.595 37.8851 84.319 38.4958C83.9618 39.2834 83.9131 39.8138 84.1728 40.5371C84.2703 40.8264 84.319 41.0836 84.2703 41.1318C84.2216 41.1801 83.6371 41.0193 82.9714 40.7943L81.7537 40.3603L82.1272 39.6531C82.3382 39.2674 82.5493 38.6566 82.6142 38.2869C82.9552 36.2938 81.1855 34.6544 80.3737 36.2135C80.1302 36.6796 80.0815 37.0332 80.1464 38.2708C80.2114 39.3799 80.1789 39.7174 80.049 39.637C78.5553 38.7852 76.672 37.435 76.396 37.0653C76.2174 36.8082 75.9739 36.2617 75.8765 35.8598C75.7141 35.2491 75.7304 35.0401 75.9252 34.6544C76.461 33.6418 77.224 33.4649 78.7989 34.0275Z" fill="#242731"/>
<path d="M81.6198 36.9356C81.8146 37.4661 81.7172 38.7358 81.4574 38.9609C81.149 39.202 80.9541 38.993 80.8243 38.2215C80.6457 37.2571 81.3113 36.1802 81.6198 36.9356Z" fill="#242731"/>
<path d="M85.2606 39.0576C85.5041 39.4915 85.5041 39.7648 85.2768 40.3434L85.0982 40.7935L84.8709 40.263C84.6761 39.8291 84.6761 39.6683 84.8547 39.2183C85.0658 38.72 85.082 38.7039 85.2606 39.0576Z" fill="#242731"/>
<path d="M40.9856 39.4916C41.0181 39.5238 41.0343 40.1024 41.0018 40.7775C40.9369 41.983 40.9369 41.999 40.5148 41.999C39.7517 41.983 37.5924 41.549 36.8131 41.2597L36.0825 40.9864L38.4853 40.2149C39.8004 39.7809 40.8882 39.4273 40.9044 39.4273C40.9044 39.4273 40.9531 39.4595 40.9856 39.4916Z" fill="#242731"/>
<path d="M34.3927 42.4654C34.8473 42.5618 34.9122 42.6583 35.4155 44.3299C35.7078 45.3103 36.0974 46.8855 36.276 47.866C36.7631 50.4216 36.6494 50.3091 38.9386 50.9199C42.2669 51.82 47.5597 54.0702 50.3847 55.79C51.229 56.3044 50.9367 56.224 49.0047 55.4043C43.5333 53.0897 38.825 51.8039 35.8214 51.8039H34.8148L34.6362 51.1127C33.6134 47.1588 32.8341 44.9085 31.9574 43.2691C31.7301 42.8512 31.5515 42.4815 31.5515 42.4172C31.5515 42.2886 33.7433 42.3207 34.3927 42.4654Z" fill="#242731"/>
<path d="M59.9519 98.8691C87.462 98.8691 109.763 77.155 109.763 50.3691C109.763 23.5833 87.462 1.86914 59.9519 1.86914C32.4419 1.86914 10.1406 23.5833 10.1406 50.3691C10.1406 77.155 32.4419 98.8691 59.9519 98.8691Z" stroke="#F5F590" stroke-width="3"/>
<path d="M1.29615 105.176L1.00047 104.889M1.00047 104.889L19.8777 86.542M1.00047 104.889C0.737981 105.144 0.733733 105.556 0.990929 105.817L13.4791 118.449C13.7412 118.714 14.175 118.721 14.4461 118.465L33.3201 100.624C33.452 100.499 33.5265 100.328 33.5265 100.149V87.7531C33.5265 87.4029 33.2461 87.1134 32.8864 87.092L20.4014 86.3488C20.2065 86.3376 20.0158 86.4074 19.8777 86.542M19.8777 86.542L20.1737 86.8295" stroke="white" stroke-width="1.6"/>
<path fill-rule="evenodd" clip-rule="evenodd" d="M20.3721 87.0103L32.595 87.7529C32.7332 87.7611 32.8408 87.8727 32.8408 88.0073V99.8935C32.8408 99.9623 32.8122 100.028 32.7614 100.076L14.1479 117.664C14.0443 117.762 13.8789 117.76 13.7778 117.66L1.55537 105.534C1.45476 105.434 1.45561 105.274 1.55727 105.175L20.1703 87.0847C20.2235 87.0327 20.2971 87.0057 20.3721 87.0103ZM30.4808 93.1198C30.4808 95.0904 28.8372 96.6878 26.8096 96.6878C24.7822 96.6878 23.1385 95.0904 23.1385 93.1198C23.1385 91.1492 24.7822 89.5517 26.8096 89.5517C28.8372 89.5517 30.4808 91.1492 30.4808 93.1198Z" fill="#F5F590"/>
<mask id="mask0_24932_40695" style="mask-type:luminance" maskUnits="userSpaceOnUse" x="0" y="86" width="34" height="33">
<path d="M33.473 86.5H0.957031V118.612H33.473V86.5Z" fill="white"/>
<path fill-rule="evenodd" clip-rule="evenodd" d="M20.3721 87.0103L32.595 87.7529C32.7332 87.7611 32.8408 87.8727 32.8408 88.0073V99.8935C32.8408 99.9623 32.8122 100.028 32.7614 100.076L14.1479 117.664C14.0443 117.762 13.8789 117.76 13.7778 117.66L1.55537 105.534C1.45476 105.434 1.45561 105.274 1.55727 105.175L20.1703 87.0847C20.2235 87.0327 20.2971 87.0057 20.3721 87.0103ZM30.4808 93.1198C30.4808 95.0904 28.8372 96.6878 26.8096 96.6878C24.7822 96.6878 23.1385 95.0904 23.1385 93.1198C23.1385 91.1492 24.7822 89.5517 26.8096 89.5517C28.8372 89.5517 30.4808 91.1492 30.4808 93.1198Z" fill="black"/>
</mask>
<g mask="url(#mask0_24932_40695)">
<path d="M32.6287 87.2442L20.4058 86.5015L20.3404 87.5189L32.5633 88.2616L32.6287 87.2442ZM33.3663 88.0072C33.3663 87.6035 33.0433 87.2691 32.6287 87.2442L32.5633 88.2616C32.4251 88.2529 32.3174 88.1418 32.3174 88.0072H33.3663ZM33.3663 99.8934V88.0072H32.3174V99.8934H33.3663ZM33.128 100.441C33.2804 100.298 33.3663 100.1 33.3663 99.8934H32.3174C32.3174 99.8246 32.3461 99.7583 32.3969 99.7104L33.128 100.441ZM14.5145 118.03L33.128 100.441L32.3969 99.7104L13.7833 117.299L14.5145 118.03ZM13.4042 118.017C13.7074 118.317 14.2038 118.323 14.5145 118.03L13.7833 117.299C13.8869 117.201 14.0524 117.203 14.1534 117.303L13.4042 118.017ZM1.18174 105.89L13.4042 118.017L14.1534 117.303L1.93103 105.177L1.18174 105.89ZM1.18745 104.814C0.882463 105.111 0.879919 105.591 1.18174 105.89L1.93103 105.177C2.03164 105.277 2.03079 105.436 1.92913 105.535L1.18745 104.814ZM19.8005 86.7243L1.18745 104.814L1.92913 105.535L20.5422 87.445L19.8005 86.7243ZM20.4058 86.5015C20.1806 86.4877 19.9601 86.5688 19.8005 86.7243L20.5422 87.445C20.489 87.4965 20.4155 87.5235 20.3404 87.5189L20.4058 86.5015ZM26.8107 97.1975C29.1278 97.1975 31.0063 95.3717 31.0063 93.1197H29.9574C29.9574 94.8089 28.5486 96.178 26.8107 96.178V97.1975ZM22.615 93.1197C22.615 95.3717 24.4935 97.1975 26.8107 97.1975V96.178C25.0728 96.178 23.6639 94.8089 23.6639 93.1197H22.615ZM26.8107 89.042C24.4935 89.042 22.615 90.8678 22.615 93.1197H23.6639C23.6639 91.4305 25.0728 90.0614 26.8107 90.0614V89.042ZM31.0063 93.1197C31.0063 90.8678 29.1278 89.042 26.8107 89.042V90.0614C28.5486 90.0614 29.9574 91.4305 29.9574 93.1197H31.0063Z" fill="white"/>
</g>
<path fill-rule="evenodd" clip-rule="evenodd" d="M26.8118 96.6888C28.8393 96.6888 30.483 95.0914 30.483 93.1208C30.483 91.1502 28.8393 89.5527 26.8118 89.5527C24.7843 89.5527 23.1406 91.1502 23.1406 93.1208C23.1406 95.0914 24.7843 96.6888 26.8118 96.6888ZM26.8113 94.6499C27.6802 94.6499 28.3846 93.9654 28.3846 93.1208C28.3846 92.2762 27.6802 91.5916 26.8113 91.5916C25.9424 91.5916 25.2379 92.2762 25.2379 93.1208C25.2379 93.9654 25.9424 94.6499 26.8113 94.6499Z" fill="white"/>
<mask id="mask1_24932_40695" style="mask-type:luminance" maskUnits="userSpaceOnUse" x="22" y="89" width="10" height="9">
<path d="M31.0045 89.043H22.6133V97.1985H31.0045V89.043Z" fill="white"/>
<path fill-rule="evenodd" clip-rule="evenodd" d="M26.8118 96.6878C28.8393 96.6878 30.483 95.0904 30.483 93.1198C30.483 91.1492 28.8393 89.5518 26.8118 89.5518C24.7843 89.5518 23.1406 91.1492 23.1406 93.1198C23.1406 95.0904 24.7843 96.6878 26.8118 96.6878ZM26.8113 94.649C27.6802 94.649 28.3846 93.9644 28.3846 93.1198C28.3846 92.2752 27.6802 91.5906 26.8113 91.5906C25.9424 91.5906 25.2379 92.2752 25.2379 93.1198C25.2379 93.9644 25.9424 94.649 26.8113 94.649Z" fill="black"/>
</mask>
<g mask="url(#mask1_24932_40695)">
<path d="M30.2212 93.1217C30.2212 94.9516 28.695 96.4349 26.8123 96.4349V96.9446C28.9846 96.9446 30.7457 95.233 30.7457 93.1217H30.2212ZM26.8123 89.8085C28.695 89.8085 30.2212 91.2918 30.2212 93.1217H30.7457C30.7457 91.0105 28.9846 89.2988 26.8123 89.2988V89.8085ZM23.4034 93.1217C23.4034 91.2918 24.9296 89.8085 26.8123 89.8085V89.2988C24.64 89.2988 22.8789 91.0105 22.8789 93.1217H23.4034ZM26.8123 96.4349C24.9296 96.4349 23.4034 94.9516 23.4034 93.1217H22.8789C22.8789 95.233 24.64 96.9446 26.8123 96.9446V96.4349ZM28.1229 93.1217C28.1229 93.8257 27.5359 94.396 26.8118 94.396V94.9058C27.8255 94.9058 28.6474 94.107 28.6474 93.1217H28.1229ZM26.8118 91.8474C27.5359 91.8474 28.1229 92.4178 28.1229 93.1217H28.6474C28.6474 92.1364 27.8255 91.3377 26.8118 91.3377V91.8474ZM25.5006 93.1217C25.5006 92.4178 26.0877 91.8474 26.8118 91.8474V91.3377C25.798 91.3377 24.9762 92.1364 24.9762 93.1217H25.5006ZM26.8118 94.396C26.0877 94.396 25.5006 93.8257 25.5006 93.1217H24.9762C24.9762 94.107 25.798 94.9058 26.8118 94.9058V94.396Z" fill="white"/>
</g>
<path d="M32.5849 80.3779C35.3819 84.1157 38.1965 91.8976 27.0781 93.1209" stroke="white" stroke-linecap="round"/>
</svg>
