<svg preserveAspectRatio="none" width="100%" height="100%" overflow="visible" style="display: block;" viewBox="0 0 1189 1189" fill="none" xmlns="http://www.w3.org/2000/svg">
<path id="Union" fill-rule="evenodd" clip-rule="evenodd" d="M891.75 594.5H784.74V0H772.85V594.5H725.29V0H713.4V594.5H665.84V0H653.95V594.5H606.39V0H594.5V594.5H0V606.39H594.5V653.95H0V665.84H594.5V713.4H0V725.29H594.5V772.85H0V784.74H594.5V891.75C594.5 1055.92 727.583 1189 891.75 1189C1055.92 1189 1189 1055.92 1189 891.75C1189 727.583 1055.92 594.5 891.75 594.5ZM653.95 653.95H606.39V606.39H653.95V653.95ZM665.84 653.95H713.4V606.39H665.84V653.95ZM725.29 653.95H772.85V606.39H725.29V653.95ZM784.74 653.95V606.39H891.75C1049.35 606.39 1177.11 734.15 1177.11 891.75C1177.11 1049.35 1049.35 1177.11 891.75 1177.11C734.15 1177.11 606.39 1049.35 606.39 891.75V784.74H653.95V891.75C653.95 1023.08 760.417 1129.55 891.75 1129.55C1023.08 1129.55 1129.55 1023.08 1129.55 891.75C1129.55 760.417 1023.08 653.95 891.75 653.95H784.74ZM653.95 772.85H606.39V725.29H653.95V772.85ZM665.84 784.74V891.75C665.84 1016.52 766.983 1117.66 891.75 1117.66C1016.52 1117.66 1117.66 1016.52 1117.66 891.75C1117.66 766.983 1016.52 665.84 891.75 665.84H784.74V713.4H891.75C990.25 713.4 1070.1 793.25 1070.1 891.75C1070.1 990.25 990.25 1070.1 891.75 1070.1C793.25 1070.1 713.4 990.25 713.4 891.75V784.74H665.84ZM725.29 713.4H772.85V665.84H725.29V713.4ZM713.4 665.84V713.4H665.84V665.84H713.4ZM713.4 725.29V772.85H665.84V725.29H713.4ZM725.29 891.75V784.74H772.85V891.75C772.85 957.417 826.083 1010.65 891.75 1010.65C957.417 1010.65 1010.65 957.417 1010.65 891.75C1010.65 826.083 957.417 772.85 891.75 772.85H784.74V725.29H891.75C983.683 725.29 1058.21 799.817 1058.21 891.75C1058.21 983.683 983.683 1058.21 891.75 1058.21C799.817 1058.21 725.29 983.683 725.29 891.75ZM784.74 891.75C784.74 950.85 832.65 998.76 891.75 998.76C950.85 998.76 998.76 950.85 998.76 891.75C998.76 832.65 950.85 784.74 891.75 784.74H784.74V891.75ZM772.85 772.85V725.29H725.29V772.85H772.85ZM653.95 713.4H606.39V665.84H653.95V713.4Z" fill="url(#paint0_linear_0_4)"/>
<defs>
<linearGradient id="paint0_linear_0_4" x1="1189" y1="1135.52" x2="405.933" y2="224.909" gradientUnits="userSpaceOnUse">
<stop stop-color="#F5F590"/>
<stop offset="1" stop-color="#242731" stop-opacity="0"/>
</linearGradient>
</defs>
</svg>
